<svg xmlns="http://www.w3.org/2000/svg" viewBox="0 0 248.64 95.03"><defs><style>.a{fill:#3d3c3c;}.b{fill:#e2a379;}.c{fill:#b3233b;}.d{fill:#f4b382;}.e{fill:#d6876b;}.f{fill:#cc785e;}.g{fill:#602f0f;}.h{fill:#4c230c;}</style></defs><title>Ресурс 1</title><path class="a" d="M164.65,64.94s-6.16-4.16-11.52-4.88a21.77,21.77,0,0,0-18.08,6.24s-5.12,23.2.48,24.48c10.64,2.4,19.44,3.28,24.72,4,3.6.48,10.72-16.32,10.72-16.32Zm0,0"/><path class="b" d="M122.41,13c-1.2,2.72,11,6.4,14.24,8.64l5-.08c24.72,12.72,37.84,15.84,37.84,15.84,14.4,8.24,43,19.84,49.12,21.36s10.56-10.56,4.88-13.52-11-5-16.72-7.44-27.84-8.08-33.12-9.76L144.33,15.34a18.38,18.38,0,0,1-3.52-2.56A19,19,0,0,0,129.45,8.3a8.1,8.1,0,0,0-7,4.72Zm0,0"/><path class="b" d="M133.53,18.94S130,17,128.81,18.78c-1,1.52-1.2,2.08,7.76,2.8,0,.08.4-1.12-3-2.64Zm0,0"/><path class="c" d="M232.73,77.18c7.2-6.64,3-16.64,4-29-.08-1.44-3.84-7-6.72-8.32-3.2-1.44-7-2.16-10.08-.32-2.8,1.2-7.6,4.48-19.68,18.56-1.44,1.6-3.36,4.56-6.64,7.28-8.24,6.72-20.56,2.64-29-.4,0,0,2.8,8.48,2.24,15-.56,6.32-6.64,14.8-6.64,14.8,39,1.6,55.2-8.8,62.24-15.84,0,0,7.84.4,10.24-1.84Zm0,0"/><path class="b" d="M236.57,43.5a43.66,43.66,0,0,1,3.76-12.88l-9.52-5c-.56,6.64-7.68,12.8-7.68,12.8,9.6,3,11.6,7.68,13.6,9.68Zm0,0"/><path class="d" d="M244.81,15.9c1.84-4.8-1.2-8.24-3.2-10.08-6.24-5.76-11-5.12-17-3.36-7.76,2.32-4.72,23.68-3,27,4.4,8.48,17.92,8.32,23,7,5.68-1.52,3.68-3,2.8-5.2a3.25,3.25,0,0,1,.16-.48,5.88,5.88,0,0,1-.32-3s-.4-.64-.56-1-.08-.4.16-.56c.72-.56,1.44-1,1.6-1.44.72-1.44-4.56-6.64-3.76-8.88Zm0,0"/><path class="e" d="M244.33,29.66s.64.16,3.2-.56c.24-.24.72-.72.08-1.28-.56-.4-1.52,1.12-3.28,1.84Zm0,0"/><path class="f" d="M244.33,29.66s.88,1.12,3.44,1a.86.86,0,0,0,.48-.64.82.82,0,0,0-.72-1c-2.56.72-3.2.56-3.2.56Zm0,0"/><path class="g" d="M223.77,1.26c-9.52,2.8-18.16,20.24-.4,32.56,1.2.8,3.52,1.52,5.84-1.6a19.85,19.85,0,0,0,2.48-4.72c.24-.72.48-1.6.72-2.48s-1.68-5.44-.8-5.92c8.88-4.24,11.44-10.32,10.64-12.8-2.88-5.52-8.32-8-18.48-5Zm0,0"/><path class="d" d="M229.29,25.34c2.64,3.84,4.48,3.44,7,2.48l-3.36-6.16-2.08-2.24c-2.48,1-4.24,2.16-1.52,5.92Zm0,0"/><path class="h" d="M213.21,20.14c-2.8-1.28-3.12-6.16-.72-11s6.56-7.68,9.36-6.4,2.48,5.12.16,9.92c-2.48,4.8-6.08,8.72-8.8,7.44Zm0,0"/><path class="g" d="M232.89,20a15.77,15.77,0,0,1-.72-2,5.2,5.2,0,0,1-.24-1.36l-2.48,1.84c.08.4.24.8.32,1.2l.72-.48a.08.08,0,0,0-.08.08,13.31,13.31,0,0,1,2.16,2.56c.08,0,1.36.4.32-1.84Zm0,0"/><path class="g" d="M211.53,20.3c-3-1.28-3.2-6.64-.56-11.84s7.12-8.4,10-7.12,2.56,5.52,0,10.72-6.48,9.6-9.44,8.24Zm0,0"/><path class="h" d="M210.57,11.42c-.32-.16.08-1.6.88-3.2s1.68-2.8,2-2.64-.08,1.28-.88,2.88-1.6,3.12-2,3Zm0,0"/><path class="d" d="M114.81,29.18c-.8,2.88,11.76,5,15.2,6.8l5-.72c26.08,9.52,39.12,11.28,39.12,11.28,15.36,6.4,45.52,14,51.76,14.72s9.12-11.76,3.2-14S217.61,43.74,211.53,42s-29-4.24-34.48-5.28c-.72-.16-40.16-8-40.16-8a15.31,15.31,0,0,1-3.84-2.16,19.24,19.24,0,0,0-11.84-3,8.66,8.66,0,0,0-6.4,5.68Zm0,0"/><path class="d" d="M126.65,33.66s-3.76-1.44-4.72.48c-.8,1.6-1,2.24,8.08,1.84,0-.08.24-1.28-3.36-2.32Zm0,0"/><path class="d" d="M.17,43c1.44-3,14.8,1.28,17.28.8,1.2-.24,2.72-1.68,5.44-1.2,3.6.64,5,3.92,6.32,4.08,6.64.88,24.16,5.28,32.16,6.4,1.84.24,3.76.56,5.68,1,7.84,1.52,1,16.56-1.84,15.76-11-3.36-37.6-14.8-41.44-16.48,0,0-12.4-3-15.28-4C6.73,48.78-1.27,46,.17,43Zm0,0"/><path class="a" d="M89.61,60.78c-9-2.4-14.56-4.64-24.08-7,.64,2.72-.56,13.52-1.68,15.76,2.8.56,23,8.48,23,8.48,3.76,1.52,54.88,16.24,63.76,14.56a58,58,0,0,0,8.56-1.92c4.64-1.44.88-27.36-5.6-28.08-14.08,1.52-39.52-.4-46.56-.8-6.48-.32-17.44-1-17.44-1Zm0,0"/></svg>