<svg xmlns="http://www.w3.org/2000/svg" viewBox="0 0 211.45 167.67"><defs><style>.a{fill:#f4b382;}.b{fill:#b3233b;}.c{fill:#e2a379;}.d{fill:#d6876b;}.e{fill:#cc785e;}.f{fill:#602f0f;}.g{fill:#4c230c;}.h{fill:#3d3c3c;}</style></defs><title>Ресурс 1</title><path class="a" d="M207.19.12c3,1.2.8,14.16,1.44,16.56.32,1.2,3,3.44,2.8,6.24-.32,3.68-5.44,5.12-5.52,6.4-.32,6.64-9,25-12.4,32.32A50.49,50.49,0,0,1,191,66.76c-1.28,2.16-16.16-4.64-15.12-6.4,6-9.84,21.68-31.92,23-35.92,0,0,2-12.64,2.72-15.52.4-1.76,2.48-10,5.6-8.8Zm0,0"/><path class="b" d="M76.31,126.36C66.47,126,61.43,134.2,51,139.56c-1.28.64-4.88,6.72-5,9.92-.08,3.52.48,7.12,3.36,9.84,2.24,2.08,9.2,6.24,27.6,2.8,8.56-1,47.44-.72,55.92-.32,0,0-6.88-11-5.28-17.36s1.92-11.92.48-11.84c-24.88,2.16-35.36-1.36-44.64-2.72.08,0-4.32-3.44-7.12-3.52Zm0,0"/><path class="c" d="M46.71,142.12A89,89,0,0,1,37.43,141l-5,12.4c6.4-2.08,13.76-.08,13.76-.08-.8-8.8,3.6-11,4.72-13.68Zm0,0"/><path class="a" d="M21.59,133.24c-4.08-3.12-8.24-1.2-10.56.24-7.28,4.32-8,9.12-8,15.28,0,8.16,21.44,11.2,25,10.48,9.36-1.84,13-14.8,13.2-20.08.16-5.84-1.84-4.4-4.16-4.16-.08,0-.4-.32-.4-.32a5.86,5.86,0,0,1-3-.48,4.83,4.83,0,0,1-1.12.24.49.49,0,0,1-.56-.32,7,7,0,0,0-.88-2c-1.2-1-7.68,2.56-9.6,1.12Zm0,0"/><path class="d" d="M34.71,137.64a8.79,8.79,0,0,0,.4-3.2c-.16-.32-.48-.88-1.2-.4-.64.32.56,1.68.8,3.6Zm0,0"/><path class="e" d="M34.71,137.64s1.36-.56,1.92-3c-.08-.32-.32-.64-.48-.64a.84.84,0,0,0-1.12.48c0,2.56-.32,3.12-.32,3.12Zm0,0"/><path class="f" d="M1.67,149.32c0,9.92,14.32,23.12,31.12,9.6,1.12-.88,2.48-3,.16-6.08a18.8,18.8,0,0,0-3.76-3.68c-.64-.4-1.36-.88-2.16-1.36s-5.76.08-5.92-.88c-1.52-9.76-6.64-13.84-9.28-13.84-6.24,1.12-10.16,5.6-10.16,16.24Zm0,0"/><path class="a" d="M26.31,150.84c4.4-1.44,4.64-3.28,4.4-5.92l-6.8,1.44-2.72,1.36c.16,2.64.72,4.64,5.12,3.12Zm0,0"/><path class="g" d="M16.79,164.84c-2,2.32-6.8,1.2-10.72-2.4S.55,154,2.55,151.64s5.6-1,9.52,2.72,6.64,8.16,4.72,10.48Zm0,0"/><path class="f" d="M22.15,145.88a10.22,10.22,0,0,1-2.08.16,4.72,4.72,0,0,1-1.36-.16l1,2.88H21s-.08-.32-.24-.88V148a13.38,13.38,0,0,1,3.12-1.36c-.08,0,.72-1.12-1.76-.72Zm0,0"/><path class="f" d="M16.47,166.44c-2.08,2.4-7.28,1.2-11.6-2.8s-6.08-9.2-4-11.6,6-.88,10.32,3,7.36,9,5.28,11.36Zm0,0"/><path class="g" d="M7.67,164.84c-.24.24-1.52-.48-2.8-1.68s-2.16-2.4-1.92-2.72,1.2.4,2.56,1.68,2.4,2.4,2.16,2.72Zm0,0"/><path class="h" d="M179.11,88.84c4.48-8.08,8.8-14.88,12.32-22.88-2.8-.08-13.6-4.16-15.52-5.68C174.63,62.84,163,82.12,163,82.12c-3,5.44-27.52,47-29.12,48-1,.64-5.84,2.56-5.84,2.56-2.88,2.8-3,7-2.88,12.88s5.92,16.24,7.68,16.16c11-.48,16.64-2.24,21.2-6.08,7-5.76,5.92-12.64,7.36-16.4a69.39,69.39,0,0,0,2.8-7.84c4.4-13.44,5.52-19.28,7.12-25.6,1.76-6.24,7.76-17,7.76-17Zm0,0"/><path class="a" d="M170.07,159.48c.32-3-20.8-2.64-20.8-2.64-27.36-5-40.8-4.32-40.8-4.32-16.24-3.76-46.88-6.64-53.2-6.32s-7,13.12-.8,14.32,11.92,1.6,18.16,2.32,29-.24,34.56-.16c.8,0,41.28.88,41.28.88a17,17,0,0,1,4.16,1.44c3.36,1.84,17.12-2.48,17.44-5.52Zm0,0"/></svg>