<svg xmlns="http://www.w3.org/2000/svg" viewBox="0 0 326.25 40.04"><defs><style>.a{fill:#e2a379;}.b{fill:#3d3c3c;}.c{fill:#b3233b;}.d{fill:#f4b382;}.e{fill:#d6876b;}.f{fill:#cc785e;}.g{fill:#602f0f;}.h{fill:#4c230c;}</style></defs><title>Ресурс 1</title><path class="a" d="M3.92,31c.08,3,12.72,1.12,16.56,1.84L25,30.72c27.76,1.12,39.76-4.24,39.76-4.24,16.56,1.44,48.56,2.48,54.8,1.2s5.12-14-1.28-14.32-12,.16-18.32.32-29.84,1.76-35.36,2.48c-.72.08-39.68,7.68-39.68,7.68A15.59,15.59,0,0,1,20.56,23a19,19,0,0,0-12.16.72A8.1,8.1,0,0,0,3.92,31Zm0,0"/><path class="a" d="M16.56,31.68s-4-.24-4.32,1.92c-.32,1.76-.16,2.4,8.24-.72-.08-.08-.24-1.28-3.92-1.2Zm0,0"/><path class="b" d="M176.8,34.56a32.1,32.1,0,0,0,13.68,2.88c11.6,0,16-3.52,16-3.52s5.84-24.64.08-25.36C195.76,7.12,187.2,5.68,182,4.8c-3.6-.56-8.16,16-8.16,16Zm0,0"/><path class="c" d="M122.89,0C113-.16,110.73,8.08,100.32,13.6c-1.28.72-4.72,6.8-4.8,10,0,3.52.56,7.12,3.52,9.76,2.24,2,9.28,6.08,27.6,2.4,8.56-1.12,40.48-5.76,50.08-1.2,0,0-1.2-11,.32-17.36a53.76,53.76,0,0,1,4.88-12.32C152,3.12,140,4.8,130.16,3.52c0-.08-4.48-3.44-7.28-3.52Zm0,0"/><path class="a" d="M96.16,16.16s-7,2.64-13.44,4.4l-.56,10.72c6.32-2.24,15-.8,15-.8-1.2-10,2.16-14.24,3.2-16.88Zm0,0"/><path class="d" d="M71.68,5.36c-4.16-3-8.24-1-10.56.48-7.2,4.56-7.76,9.36-7.6,15.52C53.76,29.52,75.2,32,78.8,31.2c9.36-2.08,12.64-15.12,12.64-20.48,0-5.84-2-4.32-4.32-4.08a1.77,1.77,0,0,1-.4-.24,6.73,6.73,0,0,1-3-.4,4.9,4.9,0,0,1-1.12.24.49.49,0,0,1-.56-.32,5.2,5.2,0,0,0-1-1.92C80,3,73.6,6.72,71.68,5.36Zm0,0"/><path class="e" d="M84.89,9.44s.32-.56.24-3.2a.81.81,0,0,0-1.28-.4c-.48.32.8,1.68,1,3.6Zm0,0"/><path class="f" d="M84.89,9.44s1.36-.56,1.84-3c-.08-.32-.32-.64-.48-.64a.84.84,0,0,0-1.12.48,8.38,8.38,0,0,1-.24,3.2Zm0,0"/><path class="g" d="M52.16,22C52.4,31.92,67,44.72,83.52,30.8c1.12-1,2.4-3,0-6.08a17.91,17.91,0,0,0-3.92-3.6c-.64-.4-1.36-.88-2.16-1.36S71.68,20,71.52,19c-1.76-9.68-7-13.68-9.68-13.6C55.68,6.72,51.92,11.36,52.16,22Zm0,0"/><path class="d" d="M76.89,22.88c4.32-1.6,4.48-3.44,4.24-6.08l-6.8,1.68L71.6,19.92c.24,2.56.88,4.56,5.28,3Zm0,0"/><path class="h" d="M67.68,37C65.76,39.44,61,38.48,57,35s-5.76-8.32-3.84-10.64,5.6-1.12,9.6,2.4,6.88,8,5,10.32Zm0,0"/><path class="g" d="M72.56,18a10.23,10.23,0,0,1-2.08.16,9,9,0,0,1-1.36-.08L70.24,21h1.28a6.38,6.38,0,0,0-.32-.88v.08a13.56,13.56,0,0,1,3-1.44c0-.08.8-1.2-1.68-.72Zm0,0"/><path class="g" d="M67.44,38.72c-2,2.48-7.2,1.36-11.6-2.48s-6.32-9-4.32-11.52,6-1,10.4,2.8,7.52,8.72,5.52,11.2Zm0,0"/><path class="h" d="M58.64,37.28c-.24.24-1.52-.48-2.88-1.6s-2.24-2.4-2-2.64,1.28.4,2.56,1.6,2.48,2.4,2.32,2.64Zm0,0"/><path class="d" d="M326.08,16.16c-1,3.2-.88,14.72-1,15.92-.32,2.88-2,5.6-4.72,4.88-2.08-.56-3.84-1.44-5.12-1.6-7-.8-19-1-34.56.48a32.75,32.75,0,0,1-4.88.16c-7.92-.24-3.36-17.76-.48-17.2,13.44,2.8,33.84,7.52,42.4,8.88,0,0,1.84-15.36,4.8-14.88,1.68.32,4.4.24,3.52,3.36Zm0,0"/><path class="b" d="M251.44,31.76C258,33.6,267.76,36.4,275.76,36c-1-2.56-.88-14.72-.24-17.2-3.52-1-22.88-5-22.88-5-7-.72-48.4-8.48-61.2-6.48A53.17,53.17,0,0,0,182.8,9c-4.64,1.36,13.12,27.28,17.84,26.56C214,33.44,229.2,29.68,234,29.44c6.4-.4,11,.4,17.44,2.32Zm0,0"/><path class="d" d="M0,35.52c.08,3,12.72,1.12,16.56,1.84L21,35.2C48.8,36.32,60.8,31,60.8,31c16.56,1.44,48.56,2.48,54.8,1.2s5.12-14-1.28-14.32-12,.16-18.32.32-29.84,1.76-35.36,2.48C59.92,20.72,21,28.32,21,28.32a15.58,15.58,0,0,1-4.32-.88,19,19,0,0,0-12.16.72A8.44,8.44,0,0,0,0,35.52Zm0,0"/><path class="d" d="M12.64,36.16s-4-.24-4.32,1.92c-.32,1.76-.16,2.4,8.24-.72,0,0-.16-1.2-3.92-1.2Zm0,0"/></svg>