<svg xmlns="http://www.w3.org/2000/svg" viewBox="0 0 160.51 117.27"><defs><style>.a{fill:#c9916c;}.b{fill:#333;}.c{fill:#3d3c3c;}.d{fill:#b3233b;}.e{fill:#e2a379;}.f{fill:#f4b382;}.g{fill:#d6876b;}.h{fill:#cc785e;}.i{fill:#602f0f;}.j{fill:#4c230c;}</style></defs><title>Ресурс 1</title><path class="a" d="M19.51,0c3.76.56,6.16,3.6,11.12,3.68,2.88.08,8.48.32,10.72,2.08C45,8.59,45,12,45.83,12.91,51.19,18.91,69.19,31,73,34c6.24,4.88-5.36,15.68-7.36,13.6C49.75,30.91,42.23,19.63,39.27,16.75c0,0-16.8-9.6-19.12-11.52C18.63,4,16.23-.44,19.51,0Zm0,0"/><path class="b" d="M92.87,51.24c-7-6-13.2-13.12-20-17.28-.64,2.72-5.44,12-7.36,13.6C67.83,49.32,83,65.72,83,65.72c5.36,4.56,31.84,35.52,43.52,41a62.15,62.15,0,0,0,8.08,3.44c4.56,1.52,16.72-21.68,11.84-26.08-12.32-7-32.64-19-38.48-21.92s-15.12-11-15.12-11Zm0,0"/><path class="c" d="M127,111.48a62.77,62.77,0,0,0,11.76,1.44c15,0,20.67-8.61,20.67-8.61S163,86.84,157.19,86c-10.8-1.6-19.28-3.2-24.56-4.16-3.52-.64-8.4,15.84-8.4,15.84Zm0,0"/><path class="d" d="M76.31,76c-9.84-.32-14.88,7.84-25.36,13.2-1.28.64-4.88,6.72-5,9.92-.08,3.52.48,7.12,3.36,9.84,2.24,2.08,9.2,6.24,27.6,2.8,8.56-1,40.56-5,50.08-.32,0,0-1-11,.56-17.36a53,53,0,0,1,5-12.24c-29.84-2.24-39.36-.8-49.2-2.24.08-.08-4.32-3.52-7.12-3.6Zm0,0"/><path class="e" d="M46.71,91.72a89,89,0,0,1-9.28-1.12l-5,12.4c6.4-2.08,13.76-.08,13.76-.08-.8-8.8,3.6-11,4.72-13.68Zm0,0"/><path class="f" d="M21.59,82.84c-4.08-3.12-8.24-1.2-10.56.24C3.75,87.4,3,92.2,3,98.36c0,8.16,21.44,11.2,25,10.48,9.36-1.84,13-14.8,13.2-20.08.16-5.84-1.84-4.4-4.16-4.16-.08,0-.4-.32-.4-.32a5.86,5.86,0,0,1-3-.48,4.83,4.83,0,0,1-1.12.24.49.49,0,0,1-.56-.32,7,7,0,0,0-.88-2c-1.2-1-7.68,2.56-9.6,1.12Zm0,0"/><path class="g" d="M34.71,87.24a8.8,8.8,0,0,0,.4-3.2c-.16-.32-.48-.88-1.2-.4-.64.32.56,1.76.8,3.6Zm0,0"/><path class="h" d="M34.71,87.24s1.36-.56,1.92-3c-.08-.32-.32-.64-.48-.64a.84.84,0,0,0-1.12.48c0,2.56-.32,3.12-.32,3.12Zm0,0"/><path class="i" d="M1.67,98.91c0,9.92,14.32,23.12,31.12,9.6,1.12-.88,2.48-3,.16-6.08a18.69,18.69,0,0,0-3.76-3.68c-.64-.4-1.36-.88-2.16-1.36s-5.76.08-5.92-.88c-1.52-9.76-6.64-13.84-9.28-13.84C5.59,83.79,1.67,88.36,1.67,98.91Zm0,0"/><path class="f" d="M26.31,100.43c4.4-1.44,4.64-3.28,4.4-5.92L23.91,96l-2.72,1.36c.08,2.64.72,4.64,5.12,3.12Zm0,0"/><path class="j" d="M16.71,114.43c-2,2.32-6.8,1.2-10.72-2.4s-5.52-8.48-3.52-10.8,5.6-1,9.52,2.72,6.72,8.16,4.72,10.48Zm0,0"/><path class="i" d="M22.15,95.48a10.46,10.46,0,0,1-2.08.16,4.84,4.84,0,0,1-1.36-.16l1,2.88H21s-.08-.32-.24-.88v.08a13.61,13.61,0,0,1,3.12-1.36c-.08,0,.72-1.12-1.76-.72Zm0,0"/><path class="i" d="M16.47,116c-2.08,2.4-7.28,1.2-11.6-2.8s-6.08-9.2-4-11.6,6-.88,10.32,3,7.36,9,5.28,11.36Zm0,0"/><path class="j" d="M7.67,114.43c-.24.24-1.52-.48-2.8-1.68S2.71,110.36,3,110s1.2.4,2.56,1.68,2.4,2.48,2.16,2.72Zm0,0"/><path class="e" d="M29.26,1.29C33,1.84,35.42,4.88,40.38,5,43.26,5,48.86,5.29,51.1,7c3.68,2.8,3.6,6.16,4.48,7.12,5.36,6,23.36,18.08,27.12,21,6.24,4.88-5.36,15.68-7.36,13.6C59.5,32.16,52,20.88,49,18c0,0-16.8-9.6-19.12-11.52-1.52-1.2-3.92-5.68-.64-5.2Zm0,0"/><path class="c" d="M104.72,53.2c-7-6-13.2-13.12-20-17.28-.64,2.72-5.44,12-7.36,13.6,2.32,1.76,17.52,18.16,17.52,18.16,5.36,4.56,31.84,35.52,43.52,41,3,1.52,7,2.68,9.2,1.55,3.63-1.89,15-19.2,10.72-24.19C149.68,76,125.68,67,119.84,64.16s-15.12-11-15.12-11Zm0,0"/><path class="f" d="M102,51.31a25.76,25.76,0,0,0,6.7,11.42,3.44,3.44,0,0,1,1.52.88,6,6,0,0,1,.64,1.76,103.87,103.87,0,0,0,4.88,20.4c-38,1-47,2.88-53,6.72s-4.8,10.8-2.8,12.8,8.8,2.8,13.2.8c12.8-3.6,53.2-10.64,55-15.92,1.44-4-10.64-23-10.64-23s-1.44-6.64-1.76-7.68-2.08-3.2-3.52-3.52c-3.84-.8-5.48-2.47-7.18-3.12-1.94-.74-1.91-1.82-3-1.5ZM97.6,53"/><path class="f" d="M107.27,59.56s-2.8-2.88-4.48-1.6c-1.44,1.12-1.76,1.6,6.56,5,0,.08.72-.88-2.08-3.44Zm0,0"/></svg>