<svg xmlns="http://www.w3.org/2000/svg" viewBox="0 0 174.78 79.38"><defs><style>.a{fill:#956341;}.b{fill:#2e2d2d;}.c{fill:#3d3c3c;}.d{fill:#e2a379;}.e{fill:#b3233b;}.f{fill:#f4b382;}.g{fill:#d6876b;}.h{fill:#cc785e;}.i{fill:#602f0f;}.j{fill:#4c230c;}</style></defs><title>Ресурс 1</title><path class="a" d="M174.7,1.2c1.12,3.12-10.16,9.84-11.52,12-.72,1-.56,4.56-2.88,6.16-3,2.16-7.44-.72-8.48.08-5.28,4.16-25.84,7.65-33.52,9.89a45.13,45.13,0,0,1-5.87,1.4c-2.48.4-6.83-13.83-4.92-14.15,11.36-1.92,39.43-4,43.35-5.62,0,0,10.8-6.8,13.52-8.16,1.6-.88,9.2-4.72,10.32-1.6Zm0,0"/><path class="b" d="M119.44,33.37,107.92,19.93c-10.56,2.24-18.16,7.54-18.16,13.86,0,12,45.36,21.18,45.36,21.18-.64,3.28-5.28,6.8-5.36,9.28-.16,4.88,19.45,12.13,26.15,6.54,3.78-3.16,4.42-14.33,2.9-20.82-4.08-17.2-26.58-8.84-39.37-16.6Zm0,0"/><path class="c" d="M119,30.63,107.51,17.18C97,19.43,92.31,23.66,92.31,30c0,12,42.4,22.24,42.4,22.24-.64,3.28-5.28,6.8-5.36,9.28-.16,4.88,25.52,9.84,28.32,4,1.12-4.8,1.12-9.28-.4-15.76-4.08-17.2-25.44-11.36-38.24-19.12Zm0,0"/><path class="d" d="M173.83,2.06c1.12,3.12-10.16,9.84-11.52,12-.72,1-.56,4.56-2.88,6.16-3,2.16-7.44-.72-8.48.08-5.28,4.16-25.28,8.24-33,10.48a40,40,0,0,1-5.52,1.44c-2.48.4-6.88-14.72-5-15,11.36-1.92,38.56-3.76,42.48-5.36,0,0,10.8-6.8,13.52-8.16,1.6-.88,9.2-4.72,10.32-1.6Zm0,0"/><path class="c" d="M127,73.59A62.77,62.77,0,0,0,138.79,75c15,0,17.12-4.24,17.12-4.24s7-21.84,1.28-22.72c-10.8-1.6-19.28-3.2-24.56-4.16-3.52-.64-8.4,15.84-8.4,15.84Zm0,0"/><path class="e" d="M76.31,38.14C66.47,37.82,61.43,46,51,51.34c-1.28.64-4.88,6.72-5,9.92-.08,3.52.48,7.12,3.36,9.84,2.24,2.08,9.2,6.24,27.6,2.8,8.56-1,40.56-5,50.08-.32,0,0-1-11,.56-17.36a53,53,0,0,1,5-12.24c-29.84-2.24-39.36-.8-49.2-2.24.08-.08-4.32-3.52-7.12-3.6Zm0,0"/><path class="d" d="M46.71,53.82a89,89,0,0,1-9.28-1.12l-5,12.4C38.87,63,46.23,65,46.23,65c-.8-8.8,3.6-11,4.72-13.68Zm0,0"/><path class="f" d="M21.59,44.95c-4.08-3.12-8.24-1.2-10.56.24C3.75,49.5,3,54.31,3,60.47c0,8.16,21.44,11.2,25,10.48,9.36-1.84,13-14.8,13.2-20.08.16-5.84-1.84-4.4-4.16-4.16-.08,0-.4-.32-.4-.32a5.86,5.86,0,0,1-3-.48,4.83,4.83,0,0,1-1.12.24.49.49,0,0,1-.56-.32,7,7,0,0,0-.88-2c-1.2-1-7.68,2.56-9.6,1.12Zm0,0"/><path class="g" d="M34.71,49.34a8.8,8.8,0,0,0,.4-3.2c-.16-.32-.48-.88-1.2-.4-.64.32.56,1.76.8,3.6Zm0,0"/><path class="h" d="M34.71,49.34s1.36-.56,1.92-3c-.08-.32-.32-.64-.48-.64a.84.84,0,0,0-1.12.48c0,2.56-.32,3.12-.32,3.12Zm0,0"/><path class="i" d="M1.67,61c0,9.92,14.32,23.12,31.12,9.6,1.12-.88,2.48-3,.16-6.08a18.69,18.69,0,0,0-3.76-3.68c-.64-.4-1.36-.88-2.16-1.36s-5.76.08-5.92-.88c-1.52-9.76-6.64-13.84-9.28-13.84C5.59,45.9,1.67,50.47,1.67,61Zm0,0"/><path class="f" d="M26.31,62.54c4.4-1.44,4.64-3.28,4.4-5.92l-6.8,1.44-2.72,1.36c.08,2.64.72,4.64,5.12,3.12Zm0,0"/><path class="j" d="M16.71,76.54c-2,2.32-6.8,1.2-10.72-2.4S.47,65.66,2.47,63.34s5.6-1,9.52,2.72,6.72,8.16,4.72,10.48Zm0,0"/><path class="i" d="M22.15,57.59a10.46,10.46,0,0,1-2.08.16,4.84,4.84,0,0,1-1.36-.16l1,2.88H21s-.08-.32-.24-.88v.08a13.61,13.61,0,0,1,3.12-1.36c-.08,0,.72-1.12-1.76-.72Zm0,0"/><path class="i" d="M16.47,78.14c-2.08,2.4-7.28,1.2-11.6-2.8s-6.08-9.2-4-11.6,6-.88,10.32,3,7.36,9,5.28,11.36Zm0,0"/><path class="j" d="M7.67,76.54c-.24.24-1.52-.48-2.8-1.68S2.71,72.47,3,72.14s1.2.4,2.56,1.68,2.4,2.48,2.16,2.72Zm0,0"/><path class="f" d="M108.87,8.79c-3,0-1.44,12.64-2.24,16.48l2.08,4.56a67.93,67.93,0,0,0,5.12,18.72c-38,1-47,2.88-53,6.72S56,66.06,58,68.06s8.8,2.8,13.2.8c12.8-3.6,53.2-10.64,55-15.92,1.44-4-10.64-23-10.64-23a17.6,17.6,0,0,1,1-4.24,19,19,0,0,0-.4-12.16,8.26,8.26,0,0,0-7.28-4.72Zm0,0"/><path class="f" d="M107.91,21.34s.32-4-1.76-4.4c-1.76-.32-2.4-.24.48,8.24,0,.08,1.2-.08,1.28-3.84Zm0,0"/></svg>