<svg xmlns="http://www.w3.org/2000/svg" viewBox="0 0 247.32 126.36"><defs><style>.a{fill:#e2a379;}.b{fill:#b3233b;}.c{fill:#f4b382;}.d{fill:#d6876b;}.e{fill:#cc785e;}.f{fill:#602f0f;}.g{fill:#4c230c;}.h{fill:#3d3c3c;}</style></defs><title>Ресурс 1</title><path class="a" d="M35.31,113.64c-2.72-.08-4.64-1.2-8-1.6-4.16-.56-11.12.08-11.76-.8-1.6-2.4.32-6.32,2.48-8,1.68-1.28,3.6-2.08,4.32-3.2,3.76-5.52,16.88-20.48,21.52-27,1-1.52,2.24-3,3.44-4.56,5-6.24,11,6.64,9,8.72-8,8.32-25.6,25-28.8,27.76,0,0,19.28,4.88,17,7-1.2,1.2-5.92,1.84-9.2,1.76Zm0,0"/><path class="a" d="M231.47,107.56c.24-2.4-8.24-3.76-16.24-5-3-.48-8.24-1.84-8.24-1.84-9.28-7-14.88-12.16-14.88-12.16-10.64-12.8-27.12-37.6-32.4-41.12s-13.52,6.24-9.28,11,8.32,9.44,12.88,13.76c6.16,8.24,17.76,19.68,21.6,23.76a41.81,41.81,0,0,0,14.32,9.6s7,4.32,9.6,5.36a17.67,17.67,0,0,0,9.92,1c2.72-.72,12.4-1.36,12.72-4.32Zm0,0"/><path class="b" d="M131.47,65.4c6.88,7,14.32,2.8,25.6,6.24,1.44.4,8.16-1.52,10.4-3.76,2.48-2.48,4.64-5.52,4.4-9.44-.16-3-2.32-10.88-18-21.12C147,32.12,136,22.12,122.19,10.84,117.15,10,104,2.52,104,2.52,97.47,1.16,92.59,23.24,92.59,23.24c20,22.24,30,26.8,36.08,34.64,0,0,.8,5.52,2.8,7.52Zm0,0"/><path class="a" d="M161.87,72.68s6.88,3,12.64,6.32l7.92-7.28c-6.08-2.88-11.28-9.92-11.28-9.92-6.16,8-11.52,8.56-14.08,9.76Zm0,0"/><path class="c" d="M193,92c4.32,2.72,8.24.4,10.48-1.2,6.88-5,7.12-9.84,6.56-16-.8-8.08-22.4-9.2-25.92-8.08-9.2,2.72-11.6,15.92-11.28,21.28.4,5.84,2.24,4.16,4.56,3.76a2.73,2.73,0,0,1,.48.24,5.49,5.49,0,0,1,3,.24s.72-.24,1.12-.32c.24-.08.4,0,.56.24A6.82,6.82,0,0,0,183.63,94c1.2.88,7.36-3.36,9.36-2.08Zm0,0"/><path class="d" d="M179.55,88.76s-.32.56-.08,3.2a.76.76,0,0,0,1.28.32c.56-.4-.8-1.68-1.2-3.52Zm0,0"/><path class="e" d="M179.55,88.76s-1.28.64-1.68,3.12a1.12,1.12,0,0,0,.56.64.81.81,0,0,0,1-.56,9.79,9.79,0,0,1,.08-3.2Zm0,0"/><path class="f" d="M211.39,74.12c-1-9.84-16.4-21.68-31.92-6.64-1,1-2.16,3.2.4,6A18.67,18.67,0,0,0,184,76.76c.72.4,1.44.8,2.24,1.2s5.68-.64,5.92.32c2.4,9.52,7.92,13.2,10.56,13,6.08-1.76,9.6-6.64,8.64-17.12Zm0,0"/><path class="c" d="M186.75,74.84c-4.24,1.92-4.24,3.76-3.84,6.32l6.64-2.08,2.64-1.6c-.48-2.64-1.2-4.56-5.44-2.64Zm0,0"/><path class="g" d="M194.91,60c1.76-2.48,6.64-1.84,10.88,1.36s6.24,7.92,4.48,10.4-5.52,1.44-9.76-1.76-7.36-7.52-5.6-10Zm0,0"/><path class="f" d="M191.31,79.4a7.38,7.38,0,0,1,2.08-.32,6.06,6.06,0,0,1,1.36,0l-1.28-2.8c-.4,0-.88.08-1.28.08a7.2,7.2,0,0,1,.32.8v-.08a14.81,14.81,0,0,1-3,1.68c0,.08-.72,1.28,1.76.64Zm0,0"/><path class="f" d="M195.07,58.36c1.84-2.64,7.12-1.84,11.76,1.68s7,8.56,5,11.2-5.92,1.44-10.56-2.08-8.16-8.16-6.24-10.8Zm0,0"/><path class="g" d="M204,59.16c.24-.32,1.52.32,3,1.44s2.4,2.24,2.24,2.48-1.28-.32-2.72-1.36-2.72-2.24-2.48-2.56Zm0,0"/><path class="c" d="M247.31,121.64c.24-2.4-8-3.76-16.24-5-3-.48-8.24-1.84-8.24-1.84C201.71,101.88,192.59,92,192.59,92,182,79.24,165.07,50.92,159.79,47.4s-13.52,6.24-9.28,11a79,79,0,0,0,12.32,16.16c10.4,12.8,18.8,20.8,22.56,24.88,6.24,6.64,29.68,20.24,29.68,20.24s7,4.32,9.6,5.36a17.67,17.67,0,0,0,9.92,1c2.72-.72,12.4-1.36,12.72-4.4Zm0,0"/><path class="c" d="M20.35,125.4c-2.72-.08-4.64-1.2-8-1.6-4.16-.56-11.12.08-11.76-.8-1.6-2.4.32-6.32,2.48-8,1.68-1.28,3.6-2.08,4.32-3.2,3.76-5.52,16.88-20.48,21.52-27,1-1.52,2.24-3,3.44-4.56,5-6.24,14.48,7.68,12.48,9.76-8,8.32-29.12,24-32.32,26.64,0,0,19.28,4.88,17,7-1.2,1.28-5.92,1.92-9.2,1.84Zm0,0"/><path class="h" d="M50.19,61.24a166,166,0,0,0-17.68,19C35.15,81.08,43.63,87.88,45,90c2-2.08,18.4-17.28,18.4-17.28,5.2-4.8,36.08-32.8,42.88-43.84a55.8,55.8,0,0,0,4.32-7.68C112.67,16.76,91,2,86,6.36c-8.4,11.36-19.84,35.52-23.36,41S50.19,61.24,50.19,61.24Zm0,0"/><path class="h" d="M122.11,10.84C109.15-1.32,102.59-.68,95.47.76c0,0-6.72,1.6-10.88,5.12a23.06,23.06,0,0,0-8.32,16.8S91.07,43.24,95.39,39.4c3.52-3.12,6.8-6,9.76-8.48,3.36-2.88,17-20.08,17-20.08Zm0,0"/></svg>